<svg width="109" height="80" viewBox="0 0 109 80" fill="none" xmlns="http://www.w3.org/2000/svg">
<path d="M2.86459 69.0391V68.0731C3.12593 68.0731 3.33593 67.9984 3.49459 67.8491C3.65326 67.6997 3.78393 67.5037 3.88659 67.2611C3.99859 67.0184 4.10593 66.7571 4.20859 66.4771L6.93859 58.9871H7.91859L10.9006 66.6171C10.9566 66.7571 11.0313 66.9717 11.1246 67.2611C11.2179 67.5411 11.2739 67.7884 11.2926 68.0031C11.4513 67.9844 11.6006 67.9751 11.7406 67.9751C11.8899 67.9657 12.0113 67.9611 12.1046 67.9611V69.0391H8.33859V68.1151C8.59993 68.1151 8.77726 68.0637 8.87059 67.9611C8.97326 67.8491 9.01993 67.6997 9.01059 67.5131C9.00126 67.3264 8.94993 67.1164 8.85659 66.8831L8.57659 66.1131L5.53859 66.1691L5.31459 66.8271C5.26793 66.9484 5.19793 67.1304 5.10459 67.3731C5.02059 67.6064 4.94126 67.8024 4.86659 67.9611C5.01593 67.9424 5.19326 67.9331 5.39859 67.9331C5.61326 67.9237 5.76726 67.9191 5.86059 67.9191V69.0391H2.86459ZM5.88859 65.1191H8.22659L7.58259 63.3691C7.46126 63.0331 7.35393 62.6971 7.26059 62.3611C7.16726 62.0157 7.09726 61.7124 7.05059 61.4511H7.03659C6.99926 61.6097 6.94326 61.8477 6.86859 62.1651C6.79393 62.4824 6.67726 62.8604 6.51859 63.2991L5.88859 65.1191ZM13.0422 61.1291C13.0422 60.9611 13.0422 60.7697 13.0422 60.5551C13.0515 60.3311 13.0655 60.1164 13.0842 59.9111C12.9348 59.9204 12.7575 59.9297 12.5522 59.9391C12.3562 59.9391 12.2068 59.9437 12.1042 59.9531V58.8891C12.5428 58.8891 12.9068 58.8657 13.1962 58.8191C13.4948 58.7724 13.7282 58.7164 13.8962 58.6511C14.0735 58.5857 14.1948 58.5251 14.2602 58.4691H15.0162V62.5711C15.3335 62.2911 15.6555 62.0951 15.9822 61.9831C16.3088 61.8711 16.6168 61.8151 16.9062 61.8151C17.4662 61.8151 17.9562 61.9597 18.3762 62.2491C18.8055 62.5384 19.1368 62.9491 19.3702 63.4811C19.6128 64.0131 19.7342 64.6384 19.7342 65.3571C19.7342 66.1037 19.5942 66.7757 19.3142 67.3731C19.0435 67.9611 18.6562 68.4231 18.1522 68.7591C17.6482 69.0951 17.0415 69.2631 16.3322 69.2631C16.0802 69.2631 15.7582 69.2071 15.3662 69.0951C14.9835 68.9924 14.6288 68.7684 14.3022 68.4231L13.8822 69.0391H13.0422V61.1291ZM15.0162 66.9391C15.0162 67.2564 15.0675 67.5084 15.1702 67.6951C15.2728 67.8817 15.4035 68.0171 15.5622 68.1011C15.7208 68.1851 15.8795 68.2317 16.0382 68.2411C16.4582 68.2504 16.7848 68.1291 17.0182 67.8771C17.2608 67.6251 17.4288 67.2937 17.5222 66.8831C17.6248 66.4631 17.6762 66.0244 17.6762 65.5671C17.6762 65.1377 17.6248 64.7317 17.5222 64.3491C17.4195 63.9664 17.2562 63.6584 17.0322 63.4251C16.8082 63.1824 16.5142 63.0657 16.1502 63.0751C15.9168 63.0844 15.7022 63.1451 15.5062 63.2571C15.3102 63.3597 15.1468 63.4997 15.0162 63.6771V66.9391ZM24.1895 69.2631C23.5175 69.2631 22.9109 69.1184 22.3695 68.8291C21.8282 68.5397 21.3989 68.1291 21.0815 67.5971C20.7735 67.0557 20.6195 66.4211 20.6195 65.6931C20.6195 64.9184 20.7782 64.2417 21.0955 63.6631C21.4222 63.0751 21.8515 62.6224 22.3835 62.3051C22.9249 61.9784 23.5129 61.8151 24.1475 61.8151C24.8195 61.8151 25.4215 61.9597 25.9535 62.2491C26.4855 62.5384 26.9055 62.9537 27.2135 63.4951C27.5215 64.0271 27.6755 64.6664 27.6755 65.4131C27.6755 66.1971 27.5262 66.8784 27.2275 67.4571C26.9289 68.0357 26.5182 68.4837 25.9955 68.8011C25.4729 69.1091 24.8709 69.2631 24.1895 69.2631ZM24.2455 68.2691C24.6189 68.2597 24.8989 68.1291 25.0855 67.8771C25.2815 67.6251 25.4169 67.3077 25.4915 66.9251C25.5662 66.5424 25.6035 66.1551 25.6035 65.7631C25.6035 65.4177 25.5755 65.0677 25.5195 64.7131C25.4729 64.3584 25.3935 64.0364 25.2815 63.7471C25.1695 63.4577 25.0155 63.2244 24.8195 63.0471C24.6329 62.8697 24.3995 62.7857 24.1195 62.7951C23.7555 62.8044 23.4662 62.9351 23.2515 63.1871C23.0462 63.4391 22.8969 63.7564 22.8035 64.1391C22.7195 64.5124 22.6775 64.9044 22.6775 65.3151C22.6775 65.7911 22.7289 66.2577 22.8315 66.7151C22.9342 67.1724 23.0975 67.5504 23.3215 67.8491C23.5549 68.1384 23.8629 68.2784 24.2455 68.2691ZM31.2112 69.0811L28.9992 64.2231C28.8965 63.9897 28.8219 63.8124 28.7752 63.6911C28.7379 63.5697 28.7099 63.4671 28.6912 63.3831C28.6819 63.2897 28.6632 63.1871 28.6352 63.0751L28.1172 63.1031V62.0391H31.3932V62.9351C31.1972 62.9444 31.0665 63.0004 31.0012 63.1031C30.9359 63.2057 30.9125 63.3411 30.9312 63.5091C30.9499 63.6677 30.9919 63.8404 31.0572 64.0271L31.7852 65.8191C31.8599 65.9964 31.9345 66.1784 32.0092 66.3651C32.0839 66.5517 32.1585 66.7384 32.2332 66.9251H32.2472C32.3219 66.7291 32.3919 66.5331 32.4572 66.3371C32.5319 66.1411 32.6019 65.9451 32.6672 65.7491L33.2692 64.0411C33.3532 63.8077 33.4279 63.6211 33.4932 63.4811C33.5679 63.3411 33.6472 63.1964 33.7312 63.0471L32.8632 63.1031V62.0391H35.5232V62.9351C35.3085 62.9724 35.1172 63.0937 34.9492 63.2991C34.7812 63.4951 34.6365 63.7191 34.5152 63.9711C34.3939 64.2137 34.2959 64.4284 34.2212 64.6151L32.4292 69.0811H31.2112ZM39.2943 69.2631C38.613 69.2631 38.011 69.1137 37.4883 68.8151C36.9657 68.5071 36.5597 68.0777 36.2703 67.5271C35.981 66.9671 35.8363 66.3091 35.8363 65.5531C35.8363 64.8997 35.981 64.2884 36.2703 63.7191C36.5597 63.1497 36.9657 62.6924 37.4883 62.3471C38.0203 61.9924 38.6363 61.8151 39.3363 61.8151C39.7283 61.8151 40.111 61.8711 40.4843 61.9831C40.8577 62.0857 41.1937 62.2677 41.4923 62.5291C41.8003 62.7904 42.043 63.1451 42.2203 63.5931C42.407 64.0411 42.4957 64.6011 42.4863 65.2731L37.8943 65.3571C37.8943 65.8611 37.955 66.3137 38.0763 66.7151C38.207 67.1164 38.417 67.4337 38.7063 67.6671C38.9957 67.9004 39.383 68.0171 39.8683 68.0171C40.055 68.0171 40.265 67.9844 40.4983 67.9191C40.741 67.8537 40.9837 67.7464 41.2263 67.5971C41.4783 67.4384 41.7117 67.2284 41.9263 66.9671L42.5563 67.5551C42.2203 68.0311 41.861 68.3951 41.4783 68.6471C41.0957 68.8897 40.713 69.0531 40.3303 69.1371C39.957 69.2211 39.6117 69.2631 39.2943 69.2631ZM37.9783 64.3771H40.5543C40.545 63.9851 40.489 63.6771 40.3863 63.4531C40.293 63.2197 40.1623 63.0517 39.9943 62.9491C39.8263 62.8464 39.6303 62.7951 39.4063 62.7951C38.9957 62.7951 38.6737 62.9444 38.4403 63.2431C38.207 63.5324 38.053 63.9104 37.9783 64.3771ZM50.8595 62.3751C50.7382 61.6004 50.4769 61.0171 50.0755 60.6251C49.6835 60.2331 49.1609 60.0324 48.5075 60.0231C48.0222 60.0231 47.5975 60.1351 47.2335 60.3591C46.8695 60.5831 46.5662 60.8817 46.3235 61.2551C46.0902 61.6284 45.9129 62.0531 45.7915 62.5291C45.6795 63.0051 45.6235 63.4951 45.6235 63.9991C45.6235 64.8017 45.7355 65.5157 45.9595 66.1411C46.1929 66.7571 46.5289 67.2424 46.9675 67.5971C47.4062 67.9517 47.9382 68.1291 48.5635 68.1291C49.1515 68.1291 49.7349 67.9797 50.3135 67.6811C50.8922 67.3731 51.3775 66.9484 51.7695 66.4071L52.4415 67.0231C51.9842 67.6484 51.5035 68.1244 50.9995 68.4511C50.4955 68.7684 50.0009 68.9831 49.5155 69.0951C49.0395 69.2071 48.6102 69.2631 48.2275 69.2631C47.5089 69.2631 46.8555 69.1371 46.2675 68.8851C45.6795 68.6237 45.1709 68.2691 44.7415 67.8211C44.3215 67.3637 43.9949 66.8364 43.7615 66.2391C43.5375 65.6324 43.4255 64.9791 43.4255 64.2791C43.4255 63.6444 43.5282 63.0144 43.7335 62.3891C43.9389 61.7637 44.2422 61.1991 44.6435 60.6951C45.0542 60.1817 45.5675 59.7757 46.1835 59.4771C46.7995 59.1691 47.5135 59.0151 48.3255 59.0151C48.6895 59.0151 49.0862 59.0757 49.5155 59.1971C49.9542 59.3091 50.3649 59.4771 50.7475 59.7011L50.6915 59.1131H51.7695V62.3751H50.8595ZM52.9242 68.1291C53.1856 68.1291 53.3722 68.0777 53.4842 67.9751C53.6056 67.8724 53.6802 67.7277 53.7082 67.5411C53.7362 67.3451 53.7502 67.1257 53.7502 66.8831V61.1291C53.7502 60.9611 53.7549 60.7697 53.7642 60.5551C53.7736 60.3311 53.7876 60.1164 53.8062 59.9111C53.6569 59.9204 53.4796 59.9297 53.2742 59.9391C53.0782 59.9391 52.9289 59.9437 52.8262 59.9531V58.8891C53.2649 58.8891 53.6289 58.8657 53.9182 58.8191C54.2169 58.7724 54.4502 58.7164 54.6182 58.6511C54.7956 58.5857 54.9169 58.5251 54.9822 58.4691H55.7382V66.7851C55.7382 66.9157 55.7336 67.1024 55.7242 67.3451C55.7149 67.5784 55.7009 67.8024 55.6822 68.0171C55.8409 67.9984 56.0089 67.9891 56.1862 67.9891C56.3636 67.9797 56.4989 67.9751 56.5922 67.9751V69.0391H52.9242V68.1291ZM60.9395 69.2631C60.2675 69.2631 59.6609 69.1184 59.1195 68.8291C58.5782 68.5397 58.1489 68.1291 57.8315 67.5971C57.5235 67.0557 57.3695 66.4211 57.3695 65.6931C57.3695 64.9184 57.5282 64.2417 57.8455 63.6631C58.1722 63.0751 58.6015 62.6224 59.1335 62.3051C59.6749 61.9784 60.2629 61.8151 60.8975 61.8151C61.5695 61.8151 62.1715 61.9597 62.7035 62.2491C63.2355 62.5384 63.6555 62.9537 63.9635 63.4951C64.2715 64.0271 64.4255 64.6664 64.4255 65.4131C64.4255 66.1971 64.2762 66.8784 63.9775 67.4571C63.6789 68.0357 63.2682 68.4837 62.7455 68.8011C62.2229 69.1091 61.6209 69.2631 60.9395 69.2631ZM60.9955 68.2691C61.3689 68.2597 61.6489 68.1291 61.8355 67.8771C62.0315 67.6251 62.1669 67.3077 62.2415 66.9251C62.3162 66.5424 62.3535 66.1551 62.3535 65.7631C62.3535 65.4177 62.3255 65.0677 62.2695 64.7131C62.2229 64.3584 62.1435 64.0364 62.0315 63.7471C61.9195 63.4577 61.7655 63.2244 61.5695 63.0471C61.3829 62.8697 61.1495 62.7857 60.8695 62.7951C60.5055 62.8044 60.2162 62.9351 60.0015 63.1871C59.7962 63.4391 59.6469 63.7564 59.5535 64.1391C59.4695 64.5124 59.4275 64.9044 59.4275 65.3151C59.4275 65.7911 59.4789 66.2577 59.5815 66.7151C59.6842 67.1724 59.8475 67.5504 60.0715 67.8491C60.3049 68.1384 60.6129 68.2784 60.9955 68.2691ZM68.3372 69.2631C67.7772 69.2631 67.3246 69.1557 66.9792 68.9411C66.6432 68.7264 66.3959 68.3904 66.2372 67.9331C66.0879 67.4757 66.0132 66.8877 66.0132 66.1691V64.5591C66.0132 64.3911 66.0179 64.1997 66.0272 63.9851C66.0366 63.7611 66.0459 63.5464 66.0552 63.3411C65.9059 63.3504 65.7286 63.3597 65.5232 63.3691C65.3272 63.3691 65.1779 63.3737 65.0752 63.3831V62.3191H65.2152C65.7939 62.3191 66.2512 62.2724 66.5872 62.1791C66.9232 62.0857 67.1379 61.9924 67.2312 61.8991H68.0012V66.1831C68.0012 66.7897 68.0806 67.2424 68.2392 67.5411C68.3979 67.8304 68.6499 67.9751 68.9952 67.9751C69.2379 67.9751 69.4806 67.9097 69.7232 67.7791C69.9752 67.6391 70.1806 67.4804 70.3392 67.3031V64.5591C70.3392 64.3911 70.3439 64.1997 70.3532 63.9851C70.3626 63.7611 70.3766 63.5464 70.3952 63.3411C70.2459 63.3504 70.0686 63.3597 69.8632 63.3691C69.6672 63.3691 69.5179 63.3737 69.4152 63.3831V62.3191H69.7512C70.1899 62.3191 70.5772 62.2724 70.9132 62.1791C71.2492 62.0764 71.4639 61.9831 71.5572 61.8991H72.3272V66.7851C72.3272 66.9157 72.3226 67.1024 72.3132 67.3451C72.3039 67.5784 72.2899 67.8024 72.2712 68.0171C72.4206 67.9984 72.5839 67.9891 72.7612 67.9891C72.9479 67.9797 73.0879 67.9751 73.1812 67.9751V69.0391H70.5212C70.5119 68.9177 70.4979 68.7964 70.4792 68.6751C70.4699 68.5537 70.4559 68.4324 70.4372 68.3111C70.1479 68.5537 69.8352 68.7731 69.4992 68.9691C69.1726 69.1651 68.7852 69.2631 68.3372 69.2631ZM76.7955 69.2631C76.2355 69.2631 75.7409 69.1184 75.3115 68.8291C74.8915 68.5397 74.5602 68.1291 74.3175 67.5971C74.0842 67.0651 73.9675 66.4397 73.9675 65.7211C73.9675 64.9651 74.1122 64.2931 74.4015 63.7051C74.6909 63.1171 75.0969 62.6551 75.6195 62.3191C76.1422 61.9831 76.7489 61.8151 77.4395 61.8151C77.6915 61.8151 77.9155 61.8431 78.1115 61.8991C78.3169 61.9457 78.5082 62.0017 78.6855 62.0671V61.1431C78.6855 61.0124 78.6902 60.8257 78.6995 60.5831C78.7089 60.3404 78.7229 60.1164 78.7415 59.9111C78.5922 59.9204 78.4149 59.9297 78.2095 59.9391C78.0042 59.9484 77.8502 59.9531 77.7475 59.9531V58.8891C78.1862 58.8891 78.5502 58.8657 78.8395 58.8191C79.1382 58.7724 79.3715 58.7164 79.5395 58.6511C79.7169 58.5857 79.8382 58.5251 79.9035 58.4691H80.6595V66.7851C80.6595 66.9157 80.6549 67.1024 80.6455 67.3451C80.6362 67.5784 80.6222 67.8024 80.6035 68.0171C80.7622 67.9984 80.9302 67.9891 81.1075 67.9891C81.2849 67.9797 81.4202 67.9751 81.5135 67.9751V69.0391H78.8535C78.8442 68.9364 78.8302 68.8291 78.8115 68.7171C78.8022 68.6051 78.7882 68.4977 78.7695 68.3951C78.4615 68.7124 78.1442 68.9364 77.8175 69.0671C77.4909 69.1977 77.1502 69.2631 76.7955 69.2631ZM77.5235 67.9891C77.7662 67.9891 77.9902 67.9284 78.1955 67.8071C78.4009 67.6764 78.5642 67.5131 78.6855 67.3171C78.6855 67.1771 78.6855 67.0371 78.6855 66.8971C78.6855 66.7571 78.6855 66.6171 78.6855 66.4771V63.1171C78.5922 63.0424 78.4522 62.9817 78.2655 62.9351C78.0789 62.8791 77.8875 62.8511 77.6915 62.8511C77.2622 62.8604 76.9262 62.9957 76.6835 63.2571C76.4409 63.5184 76.2682 63.8497 76.1655 64.2511C76.0722 64.6524 76.0255 65.0724 76.0255 65.5111C76.0255 65.9031 76.0722 66.2904 76.1655 66.6731C76.2682 67.0557 76.4269 67.3731 76.6415 67.6251C76.8655 67.8677 77.1595 67.9891 77.5235 67.9891ZM85.4294 69.2631C84.8134 69.2631 84.3187 69.1744 83.9454 68.9971C83.572 68.8197 83.2967 68.5911 83.1194 68.3111C82.9514 68.0311 82.8674 67.7371 82.8674 67.4291C82.8674 67.1771 82.9467 66.9437 83.1054 66.7291C83.2734 66.5051 83.502 66.3931 83.7914 66.3931C84.146 66.3931 84.384 66.4957 84.5054 66.7011C84.6267 66.8971 84.6874 67.0884 84.6874 67.2751C84.6874 67.3497 84.6687 67.4524 84.6314 67.5831C84.6034 67.7044 84.5567 67.8024 84.4914 67.8771C84.566 67.9891 84.6827 68.0871 84.8414 68.1711C85.0094 68.2457 85.21 68.2784 85.4434 68.2691C85.714 68.2504 85.952 68.1757 86.1574 68.0451C86.3627 67.9051 86.5354 67.7184 86.6754 67.4851C86.8247 67.2517 86.9414 66.9857 87.0254 66.6871C87.1187 66.3884 87.1794 66.0711 87.2074 65.7351C87.2447 65.3897 87.254 65.0397 87.2354 64.6851C87.086 64.8624 86.8434 65.0351 86.5074 65.2031C86.1714 65.3711 85.826 65.4644 85.4714 65.4831C84.958 65.4924 84.51 65.4224 84.1274 65.2731C83.754 65.1144 83.4414 64.8857 83.1894 64.5871C82.9467 64.2884 82.7647 63.9384 82.6434 63.5371C82.522 63.1357 82.4614 62.6971 82.4614 62.2211C82.4614 61.5957 82.6014 61.0451 82.8814 60.5691C83.1707 60.0837 83.5674 59.7057 84.0714 59.4351C84.5847 59.1551 85.1727 59.0151 85.8354 59.0151C86.4607 59.0151 86.988 59.1317 87.4174 59.3651C87.856 59.5984 88.2107 59.9297 88.4814 60.3591C88.752 60.7791 88.948 61.2784 89.0694 61.8571C89.2 62.4357 89.2654 63.0657 89.2654 63.7471C89.2654 64.1671 89.2327 64.6244 89.1674 65.1191C89.1114 65.6137 89.004 66.1037 88.8454 66.5891C88.696 67.0744 88.4767 67.5224 88.1874 67.9331C87.9074 68.3344 87.5387 68.6564 87.0814 68.8991C86.6334 69.1417 86.0827 69.2631 85.4294 69.2631ZM85.8634 64.3631C86.0594 64.3631 86.246 64.3211 86.4234 64.2371C86.6007 64.1531 86.7594 64.0411 86.8994 63.9011C87.0394 63.7611 87.1514 63.6071 87.2354 63.4391C87.2354 62.9911 87.212 62.5617 87.1654 62.1511C87.1187 61.7404 87.0394 61.3717 86.9274 61.0451C86.8247 60.7184 86.68 60.4617 86.4934 60.2751C86.316 60.0884 86.092 59.9951 85.8214 59.9951C85.5414 59.9951 85.308 60.0884 85.1214 60.2751C84.9347 60.4524 84.7947 60.6857 84.7014 60.9751C84.6174 61.2644 84.5754 61.5724 84.5754 61.8991C84.5754 62.1044 84.5894 62.3471 84.6174 62.6271C84.6454 62.9071 84.7014 63.1824 84.7854 63.4531C84.8694 63.7144 84.9954 63.9337 85.1634 64.1111C85.3407 64.2791 85.574 64.3631 85.8634 64.3631ZM93.6595 69.0391V68.0731C93.9208 68.0731 94.1308 67.9984 94.2895 67.8491C94.4482 67.6997 94.5788 67.5037 94.6815 67.2611C94.7935 67.0184 94.9008 66.7571 95.0035 66.4771L97.7335 58.9871H98.7135L101.696 66.6171C101.752 66.7571 101.826 66.9717 101.92 67.2611C102.013 67.5411 102.069 67.7884 102.088 68.0031C102.246 67.9844 102.396 67.9751 102.536 67.9751C102.685 67.9657 102.806 67.9611 102.9 67.9611V69.0391H99.1335V68.1151C99.3948 68.1151 99.5722 68.0637 99.6655 67.9611C99.7682 67.8491 99.8148 67.6997 99.8055 67.5131C99.7962 67.3264 99.7448 67.1164 99.6515 66.8831L99.3715 66.1131L96.3335 66.1691L96.1095 66.8271C96.0628 66.9484 95.9928 67.1304 95.8995 67.3731C95.8155 67.6064 95.7362 67.8024 95.6615 67.9611C95.8108 67.9424 95.9882 67.9331 96.1935 67.9331C96.4082 67.9237 96.5622 67.9191 96.6555 67.9191V69.0391H93.6595ZM96.6835 65.1191H99.0215L98.3775 63.3691C98.2562 63.0331 98.1488 62.6971 98.0555 62.3611C97.9622 62.0157 97.8922 61.7124 97.8455 61.4511H97.8315C97.7942 61.6097 97.7382 61.8477 97.6635 62.1651C97.5888 62.4824 97.4722 62.8604 97.3135 63.2991L96.6835 65.1191ZM107.673 60.1631C107.468 60.1724 107.29 60.2004 107.141 60.2471C106.992 60.2937 106.875 60.4011 106.791 60.5691C106.716 60.7277 106.679 60.9984 106.679 61.3811V66.7431C106.679 66.9951 106.674 67.2377 106.665 67.4711C106.656 67.7044 106.642 67.8817 106.623 68.0031C106.772 67.9844 106.959 67.9751 107.183 67.9751C107.416 67.9657 107.58 67.9611 107.673 67.9611V69.0391H103.655V68.1151C103.87 68.1057 104.047 68.0777 104.187 68.0311C104.336 67.9844 104.448 67.8771 104.523 67.7091C104.607 67.5411 104.649 67.2704 104.649 66.8971V61.5351C104.649 61.2831 104.654 61.0404 104.663 60.8071C104.682 60.5737 104.696 60.3964 104.705 60.2751C104.556 60.2844 104.369 60.2937 104.145 60.3031C103.921 60.3031 103.758 60.3077 103.655 60.3171V59.2391H107.673V60.1631Z" fill="#050000"/>
<mask id="mask0_152_2705" style="mask-type:alpha" maskUnits="userSpaceOnUse" x="19" y="19" width="74" height="35">
<rect x="19.8885" y="19.2065" width="72.931" height="34.6632" fill="#D9D9D9"/>
</mask>
<g mask="url(#mask0_152_2705)">
<path d="M88.2109 48.7171C88.2109 64.6969 73.9924 77.7277 56.3541 77.7277C38.7158 77.7277 24.4974 64.6969 24.4974 48.7171C24.4974 32.7374 38.7158 19.7065 56.3541 19.7065C73.9924 19.7065 88.2109 32.7374 88.2109 48.7171Z" fill="#F1B00A" stroke="black"/>
<path d="M88.2109 48.7171C88.2109 64.6969 73.9924 77.7277 56.3541 77.7277C38.7158 77.7277 24.4974 64.6969 24.4974 48.7171C24.4974 32.7374 38.7158 19.7065 56.3541 19.7065C73.9924 19.7065 88.2109 32.7374 88.2109 48.7171Z" fill="#F1B00A" stroke="black"/>
</g>
<mask id="mask1_152_2705" style="mask-type:alpha" maskUnits="userSpaceOnUse" x="25" y="13" width="63" height="67">
<rect x="25.0246" y="13.5854" width="62.659" height="65.5791" rx="31.3295" fill="#D9D9D9"/>
</mask>
<g mask="url(#mask1_152_2705)">
<mask id="mask2_152_2705" style="mask-type:alpha" maskUnits="userSpaceOnUse" x="19" y="26" width="71" height="28">
<rect x="19.8885" y="26.7012" width="69.8494" height="27.1685" fill="#D9D9D9"/>
</mask>
<g mask="url(#mask2_152_2705)">
<path fill-rule="evenodd" clip-rule="evenodd" d="M36.7267 42.0107C36.7185 42.0107 36.7103 42.0107 36.7021 42.0107C29.133 42.0107 21.9429 48.1379 21.9429 54.5102C21.9429 60.8824 28.0788 66.0482 35.6478 66.0482C41.9519 66.0482 47.2619 62.4648 48.8606 57.5854C51.3601 59.8206 54.9071 61.2162 58.8412 61.2162C61.0452 61.2162 63.217 60.6967 65.1885 59.803C67.6259 62.9965 71.8829 65.112 76.7267 65.112C84.2958 65.112 89.3774 59.9463 89.3774 53.5741C89.3774 47.2018 84.2958 42.0361 76.7267 42.0361C74.7253 42.0361 72.824 42.3973 71.1099 43.0465C69.5998 41.7511 67.4898 40.9272 65.0239 40.4809C64.1475 34.8201 58.3974 30.4487 51.4346 30.4487C44.2377 30.4487 37.3833 35.9882 36.7267 42.0107Z" fill="#DE8E00"/>
<path fill-rule="evenodd" clip-rule="evenodd" d="M49.8549 56.8442C52.0858 58.7519 55.1887 59.9347 58.6197 59.9347C60.8463 59.9347 63.0362 59.3439 64.9744 58.3482C66.7084 62.2974 71.2209 65.1128 76.5145 65.1128C83.3072 65.1128 87.8677 60.4769 87.8677 54.7582C87.8677 49.0396 83.3072 44.4036 76.5145 44.4036C74.5749 44.4036 72.7402 44.7816 71.1085 45.4549C69.7929 42.9793 66.8718 41.6661 63.2222 41.1777C62.3592 36.1697 57.2387 32.3228 51.0509 32.3228C44.4626 32.3228 38.7326 37.9864 38.3936 43.545C31.7339 43.7334 25.5061 49.1393 25.5061 54.7574C25.5061 60.4761 31.0127 65.112 37.8054 65.112C43.7491 65.112 48.708 61.5627 49.8549 56.8442Z" fill="#FCFCFC"/>
<path fill-rule="evenodd" clip-rule="evenodd" d="M43.4825 45.9265C43.4824 45.9201 43.4824 45.9137 43.4824 45.9074C43.4824 42.8029 46.9853 39.8179 50.6728 39.8179C54.0318 39.8179 56.8115 41.9061 57.28 44.6247C59.3607 44.9031 61.0051 45.6754 61.662 47.1537C62.656 46.6593 63.8155 46.3755 65.0537 46.3755C68.7412 46.3755 71.2169 48.8921 71.2169 51.9966C71.2169 55.101 68.7412 57.6176 65.0537 57.6176C62.0686 57.6176 59.541 55.9684 58.6865 53.6932C57.5285 54.385 56.1681 54.807 54.7815 54.807C53.1197 54.807 51.2933 54.4862 49.7881 53.8496C48.8785 56.0437 46.3989 57.6179 43.4825 57.6179C39.795 57.6179 36.8057 55.1012 36.8057 51.9968C36.8057 49.0369 39.9899 46.1856 43.4825 45.9265Z" fill="#E1ECFE"/>
</g>
</g>
<line x1="24.4644" y1="53.5093" x2="88.165" y2="53.5093" stroke="black"/>
<line y1="-0.5" x2="7.74412" y2="-0.5" transform="matrix(0.994231 0.107263 -0.128621 0.991694 88.165 52.811)" stroke="black"/>
<path d="M88.6465 49.1865H102" stroke="black"/>
<path d="M88.0825 43.5197L100.922 40.7548" stroke="black"/>
<path d="M86.0352 37.56L97.9132 32.3231" stroke="black"/>
<path d="M82.4835 31.7588L93.269 23.8913" stroke="black"/>
<path d="M77.3473 26.2339L86.0785 16.397" stroke="black"/>
<line y1="-0.5" x2="8.2049" y2="-0.5" transform="matrix(0.992321 -0.123686 0.14819 0.988959 88.6846 46.8838)" stroke="black"/>
<path d="M80.0563 29.1519L85.3569 24.6121" stroke="black"/>
<path d="M73.2386 23.8273L76.8338 18.4395" stroke="black"/>
<line y1="-0.5" x2="6.52265" y2="-0.5" transform="matrix(0.957779 -0.287506 0.339446 0.940626 87.3146 40.9248)" stroke="black"/>
<path d="M84.2711 33.9434L90.7011 30.4495" stroke="black"/>
<path d="M69.7096 22.0684L74.9272 10.8576" stroke="black"/>
<path d="M63.6418 20.3038L65.8682 8.44386" stroke="black"/>
<path d="M56.8265 19.3942L56.1821 7.37606" stroke="black"/>
<path d="M49.712 20.1332L45.9857 8.00419" stroke="black"/>
<path d="M42.129 22.2865L35.6124 11.1128" stroke="black"/>
<line y1="-0.5" x2="7.61905" y2="-0.5" transform="matrix(0.283112 -0.949193 0.978643 0.242803 67.3998 21.1362)" stroke="black"/>
<path d="M45.8043 21.1519L43.2935 14.928" stroke="black"/>
<path d="M38.7984 24.051L34.7653 18.9275" stroke="black"/>
<line y1="-0.5" x2="7.66005" y2="-0.5" transform="matrix(0.0894339 -0.975015 1.01553 0.077484 60.8959 19.7295)" stroke="black"/>
<path d="M52.6154 19.4858L51.6016 12.7225" stroke="black"/>
<path d="M35.9318 25.9253L27.3483 16.5957" stroke="black"/>
<path d="M31.7459 29.8916L21.1702 22.6981" stroke="black"/>
<path d="M27.7275 35.4525L15.694 30.5201" stroke="black"/>
<path d="M25.2554 41.4331L11.7144 38.9548" stroke="black"/>
<path d="M24.2445 48.5736L10.37 48.7964" stroke="black"/>
<line y1="-0.5" x2="7.80385" y2="-0.5" transform="matrix(-0.779858 -0.645338 0.696792 -0.70042 33.9733 27.3794)" stroke="black"/>
<path d="M24.6261 44.8052L17.4059 44.0199" stroke="black"/>
<path d="M24.4062 52.0664L17.2898 53.0568" stroke="black"/>
<line y1="-0.5" x2="7.81387" y2="-0.5" transform="matrix(-0.893976 -0.50518 0.546842 -0.804949 29.5385 32.4336)" stroke="black"/>
<path d="M25.9412 38.7803L18.8735 36.5337" stroke="black"/>
</svg>
