<svg width="230" height="200" viewBox="0 0 230 200" fill="none" xmlns="http://www.w3.org/2000/svg">
<rect width="230" height="200" rx="19.0476" fill="url(#paint0_linear_45_537)"/>
<path d="M150.502 70.1472L157.35 59.8848" stroke="#FFFEFB" stroke-width="1.90476" stroke-linecap="round"/>
<path d="M143.78 66.7968L153.718 45.4429" stroke="#FFFEFB" stroke-width="1.90476" stroke-linecap="round"/>
<path d="M132.222 63.4358L136.463 40.8455" stroke="#FFFEFB" stroke-width="1.90476" stroke-linecap="round"/>
<path d="M119.241 61.7032L118.014 38.8115" stroke="#FFFEFB" stroke-width="1.90476" stroke-linecap="round"/>
<path d="M105.69 63.1107L98.5918 40.0078" stroke="#FFFEFB" stroke-width="1.90476" stroke-linecap="round"/>
<path d="M91.2457 67.2124L78.8331 45.9292" stroke="#FFFEFB" stroke-width="1.90476" stroke-linecap="round"/>
<path d="M138.448 64.79L142.557 51.0149" stroke="#FFFEFB" stroke-width="1.90357" stroke-linecap="round"/>
<path d="M98.2463 65.0511L93.4639 53.196" stroke="#FFFEFB" stroke-width="1.90476" stroke-linecap="round"/>
<path d="M84.9017 70.5733L77.2196 60.8142" stroke="#FFFEFB" stroke-width="1.90476" stroke-linecap="round"/>
<path d="M126.025 62.2681L127.33 48.042" stroke="#FFFEFB" stroke-width="1.9021" stroke-linecap="round"/>
<path d="M111.22 61.8778L109.289 48.9954" stroke="#FFFEFB" stroke-width="1.90476" stroke-linecap="round"/>
<path d="M79.4416 74.1435L63.092 56.3728" stroke="#FFFEFB" stroke-width="1.90476" stroke-linecap="round"/>
<path d="M71.4684 81.6982L51.3242 67.9963" stroke="#FFFEFB" stroke-width="1.90476" stroke-linecap="round"/>
<path d="M63.8143 92.2906L40.8933 82.8955" stroke="#FFFEFB" stroke-width="1.90476" stroke-linecap="round"/>
<path d="M59.1055 103.682L33.3131 98.9617" stroke="#FFFEFB" stroke-width="1.90476" stroke-linecap="round"/>
<path d="M57.1801 117.283L30.7524 117.707" stroke="#FFFEFB" stroke-width="1.90476" stroke-linecap="round"/>
<path d="M75.0475 77.5803L63.4553 67.9877" stroke="#FFFEFB" stroke-width="1.90484" stroke-linecap="round"/>
<path d="M57.9068 110.105L44.1541 108.609" stroke="#FFFEFB" stroke-width="1.90476" stroke-linecap="round"/>
<path d="M57.488 123.936L43.933 125.823" stroke="#FFFEFB" stroke-width="1.90476" stroke-linecap="round"/>
<path d="M66.743 87.3069L53.4375 79.788" stroke="#FFFEFB" stroke-width="1.90404" stroke-linecap="round"/>
<path d="M60.4119 98.6291L46.9496 94.3499" stroke="#FFFEFB" stroke-width="1.90476" stroke-linecap="round"/>
<path d="M179.056 124.41L193.721 125.992" stroke="#FFFEFB" stroke-width="1.90476" stroke-linecap="round"/>
<path d="M179.85 118.45H205.286" stroke="#FFFEFB" stroke-width="1.90476" stroke-linecap="round"/>
<path d="M178.776 107.657L203.232 102.39" stroke="#FFFEFB" stroke-width="1.90476" stroke-linecap="round"/>
<path d="M174.877 96.3049L197.501 86.3298" stroke="#FFFEFB" stroke-width="1.90476" stroke-linecap="round"/>
<path d="M168.111 85.255L188.655 70.2693" stroke="#FFFEFB" stroke-width="1.90476" stroke-linecap="round"/>
<path d="M158.328 74.7311L174.959 55.9941" stroke="#FFFEFB" stroke-width="1.90476" stroke-linecap="round"/>
<path d="M179.782 113.123L195.29 111.19" stroke="#FFFEFB" stroke-width="1.90476" stroke-linecap="round"/>
<path d="M163.488 80.2893L173.585 71.6421" stroke="#FFFEFB" stroke-width="1.90476" stroke-linecap="round"/>
<path d="M176.99 101.818L188.89 98.2461" stroke="#FFFEFB" stroke-width="1.90476" stroke-linecap="round"/>
<path d="M171.516 89.416L183.764 82.761" stroke="#FFFEFB" stroke-width="1.90476" stroke-linecap="round"/>
<mask id="mask0_45_537" style="mask-type:alpha" maskUnits="userSpaceOnUse" x="48" y="61" width="140" height="67">
<path d="M187.799 61.3457H48.8828V127.371H187.799V61.3457Z" fill="#D9D9D9"/>
</mask>
<g mask="url(#mask0_45_537)">
<path d="M179.021 117.556C179.021 147.994 151.938 172.815 118.341 172.815C84.7443 172.815 57.6616 147.994 57.6616 117.556C57.6616 87.1189 84.7443 62.2981 118.341 62.2981C151.938 62.2981 179.021 87.1189 179.021 117.556Z" fill="#F1B00A" stroke="#FFFEFB" stroke-width="1.90476"/>
<path d="M179.021 117.556C179.021 147.994 151.938 172.815 118.341 172.815C84.7443 172.815 57.6616 147.994 57.6616 117.556C57.6616 87.1189 84.7443 62.2981 118.341 62.2981C151.938 62.2981 179.021 87.1189 179.021 117.556Z" fill="#F1B00A" stroke="#FFFEFB" stroke-width="1.90476"/>
</g>
<mask id="mask1_45_537" style="mask-type:alpha" maskUnits="userSpaceOnUse" x="58" y="50" width="121" height="126">
<path d="M178.016 110.314C178.016 77.3564 151.299 50.6389 118.341 50.6389C85.3834 50.6389 58.6659 77.3564 58.6659 110.314V115.876C58.6659 148.834 85.3834 175.551 118.341 175.551C151.299 175.551 178.016 148.834 178.016 115.876V110.314Z" fill="#D9D9D9"/>
</mask>
<g mask="url(#mask1_45_537)">
<mask id="mask2_45_537" style="mask-type:alpha" maskUnits="userSpaceOnUse" x="48" y="75" width="134" height="53">
<path d="M181.929 75.6216H48.8828V127.371H181.929V75.6216Z" fill="#D9D9D9"/>
</mask>
<g mask="url(#mask2_45_537)">
<path fill-rule="evenodd" clip-rule="evenodd" d="M80.9555 104.783C80.9399 104.783 80.9243 104.783 80.9087 104.783C66.4913 104.783 52.7959 116.453 52.7959 128.591C52.7959 140.729 64.4833 150.568 78.9005 150.568C90.9083 150.568 101.023 143.743 104.068 134.449C108.829 138.706 115.585 141.365 123.078 141.365C127.276 141.365 131.413 140.375 135.168 138.673C139.811 144.756 147.92 148.785 157.146 148.785C171.563 148.785 181.243 138.946 181.243 126.808C181.243 114.67 171.563 104.831 157.146 104.831C153.334 104.831 149.712 105.519 146.447 106.756C143.571 104.288 139.552 102.719 134.855 101.869C133.186 91.0862 122.233 82.7598 108.971 82.7598C95.2622 82.7598 82.2062 93.3112 80.9555 104.783Z" fill="url(#paint1_linear_45_537)"/>
<path fill-rule="evenodd" clip-rule="evenodd" d="M105.962 133.037C110.211 136.671 116.121 138.924 122.657 138.924C126.898 138.924 131.069 137.798 134.761 135.902C138.064 143.424 146.659 148.787 156.742 148.787C169.68 148.787 178.367 139.956 178.367 129.064C178.367 118.171 169.68 109.341 156.742 109.341C153.047 109.341 149.553 110.061 146.445 111.343C143.939 106.628 138.375 104.126 131.423 103.196C129.779 93.657 120.026 86.3296 108.24 86.3296C95.6906 86.3296 84.7763 97.1174 84.1306 107.705C71.4455 108.064 59.583 118.361 59.583 129.062C59.583 139.955 70.0718 148.785 83.0102 148.785C94.3316 148.785 103.777 142.025 105.962 133.037Z" fill="#F6C855"/>
<path fill-rule="evenodd" clip-rule="evenodd" d="M93.8237 112.241C93.8235 112.229 93.8235 112.217 93.8235 112.205C93.8235 106.292 100.496 100.606 107.519 100.606C113.918 100.606 119.212 104.583 120.105 109.762C124.068 110.292 127.2 111.763 128.451 114.579C130.345 113.637 132.553 113.097 134.912 113.097C141.935 113.097 146.651 117.89 146.651 123.803C146.651 129.717 141.935 134.51 134.912 134.51C129.226 134.51 124.411 131.369 122.784 127.035C120.578 128.353 117.987 129.157 115.346 129.157C112.18 129.157 108.701 128.546 105.834 127.333C104.102 131.512 99.3787 134.511 93.8237 134.511C86.7999 134.511 81.106 129.717 81.106 123.804C81.106 118.166 87.1711 112.735 93.8237 112.241Z" fill="#FFF2DD"/>
</g>
</g>
<path d="M57.5989 126.684H178.933" stroke="#FFFEFB" stroke-width="1.90476"/>
<path d="M25.1173 161.048L32.1353 145.538H34.4453L41.4633 161.048H38.6033L36.7333 156.692L37.9213 157.462H28.6373L29.8253 156.692L27.9773 161.048H25.1173ZM33.2573 148.596L30.1773 155.922L29.6053 155.218H36.9533L36.4033 155.922L33.3013 148.596H33.2573ZM49.9804 161.268C49.0711 161.268 48.2718 161.04 47.5824 160.586C46.9078 160.131 46.4604 159.522 46.2404 158.76H46.4604V161.048H43.7764V145.538H46.5264V152.468H46.2624C46.4971 151.749 46.9518 151.17 47.6264 150.73C48.3011 150.29 49.0858 150.07 49.9804 150.07C50.9338 150.07 51.7624 150.297 52.4664 150.752C53.1704 151.206 53.7204 151.852 54.1164 152.688C54.5124 153.509 54.7104 154.499 54.7104 155.658C54.7104 156.802 54.5124 157.799 54.1164 158.65C53.7204 159.486 53.1631 160.131 52.4444 160.586C51.7404 161.04 50.9191 161.268 49.9804 161.268ZM49.2104 159.178C50.0318 159.178 50.6918 158.884 51.1904 158.298C51.6891 157.696 51.9384 156.816 51.9384 155.658C51.9384 154.484 51.6891 153.612 51.1904 153.04C50.6918 152.453 50.0318 152.16 49.2104 152.16C48.3891 152.16 47.7291 152.453 47.2304 153.04C46.7318 153.612 46.4824 154.484 46.4824 155.658C46.4824 156.816 46.7318 157.696 47.2304 158.298C47.7291 158.884 48.3891 159.178 49.2104 159.178ZM62.7538 161.268C61.6392 161.268 60.6712 161.04 59.8498 160.586C59.0285 160.131 58.3905 159.486 57.9358 158.65C57.4812 157.799 57.2538 156.802 57.2538 155.658C57.2538 154.514 57.4812 153.524 57.9358 152.688C58.3905 151.852 59.0285 151.206 59.8498 150.752C60.6712 150.297 61.6392 150.07 62.7538 150.07C63.8685 150.07 64.8365 150.297 65.6578 150.752C66.4792 151.206 67.1172 151.852 67.5718 152.688C68.0265 153.524 68.2538 154.514 68.2538 155.658C68.2538 156.802 68.0265 157.799 67.5718 158.65C67.1172 159.486 66.4792 160.131 65.6578 160.586C64.8365 161.04 63.8685 161.268 62.7538 161.268ZM62.7538 159.178C63.5752 159.178 64.2352 158.884 64.7338 158.298C65.2325 157.696 65.4818 156.816 65.4818 155.658C65.4818 154.484 65.2325 153.612 64.7338 153.04C64.2352 152.453 63.5752 152.16 62.7538 152.16C61.9325 152.16 61.2725 152.453 60.7738 153.04C60.2752 153.612 60.0258 154.484 60.0258 155.658C60.0258 156.816 60.2752 157.696 60.7738 158.298C61.2725 158.884 61.9325 159.178 62.7538 159.178ZM74.3568 161.048L69.6928 150.29H72.6188L75.9408 158.628H75.2808L78.7128 150.29H81.4628L76.7328 161.048H74.3568ZM88.7575 161.268C87.5402 161.268 86.4915 161.04 85.6115 160.586C84.7315 160.131 84.0495 159.486 83.5655 158.65C83.0962 157.814 82.8615 156.824 82.8615 155.68C82.8615 154.565 83.0888 153.59 83.5435 152.754C84.0128 151.918 84.6508 151.265 85.4575 150.796C86.2788 150.312 87.2102 150.07 88.2515 150.07C89.2782 150.07 90.1582 150.29 90.8915 150.73C91.6248 151.17 92.1895 151.793 92.5855 152.6C92.9962 153.406 93.2015 154.367 93.2015 155.482V156.296H85.0835V154.712H91.2655L90.9135 155.042C90.9135 154.044 90.6935 153.282 90.2535 152.754C89.8135 152.211 89.1828 151.94 88.3615 151.94C87.7455 151.94 87.2175 152.086 86.7775 152.38C86.3522 152.658 86.0222 153.062 85.7875 153.59C85.5675 154.103 85.4575 154.719 85.4575 155.438V155.592C85.4575 156.398 85.5822 157.066 85.8315 157.594C86.0808 158.122 86.4548 158.518 86.9535 158.782C87.4522 159.046 88.0682 159.178 88.8015 159.178C89.4028 159.178 90.0042 159.09 90.6055 158.914C91.2068 158.723 91.7568 158.43 92.2555 158.034L93.0255 159.882C92.5122 160.307 91.8668 160.644 91.0895 160.894C90.3122 161.143 89.5348 161.268 88.7575 161.268ZM103.739 161.268C102.126 161.268 100.74 160.945 99.5813 160.3C98.4373 159.64 97.5573 158.716 96.9413 157.528C96.3253 156.325 96.0173 154.91 96.0173 153.282C96.0173 151.654 96.3253 150.246 96.9413 149.058C97.5573 147.87 98.4373 146.953 99.5813 146.308C100.74 145.648 102.126 145.318 103.739 145.318C104.781 145.318 105.763 145.479 106.687 145.802C107.626 146.124 108.396 146.586 108.997 147.188L108.073 149.432C107.413 148.874 106.739 148.471 106.049 148.222C105.36 147.958 104.619 147.826 103.827 147.826C102.258 147.826 101.063 148.302 100.241 149.256C99.42 150.194 99.0093 151.536 99.0093 153.282C99.0093 155.027 99.42 156.376 100.241 157.33C101.063 158.283 102.258 158.76 103.827 158.76C104.619 158.76 105.36 158.635 106.049 158.386C106.739 158.122 107.413 157.711 108.073 157.154L108.997 159.398C108.396 159.984 107.626 160.446 106.687 160.784C105.763 161.106 104.781 161.268 103.739 161.268ZM115.811 161.268C114.535 161.268 113.589 160.923 112.973 160.234C112.372 159.53 112.071 158.503 112.071 157.154V145.538H114.821V157.022C114.821 157.447 114.88 157.814 114.997 158.122C115.129 158.415 115.32 158.635 115.569 158.782C115.818 158.928 116.126 159.002 116.493 159.002C116.654 159.002 116.816 158.994 116.977 158.98C117.138 158.965 117.292 158.936 117.439 158.892L117.395 161.07C117.131 161.128 116.867 161.172 116.603 161.202C116.354 161.246 116.09 161.268 115.811 161.268ZM124.775 161.268C123.66 161.268 122.692 161.04 121.871 160.586C121.05 160.131 120.412 159.486 119.957 158.65C119.502 157.799 119.275 156.802 119.275 155.658C119.275 154.514 119.502 153.524 119.957 152.688C120.412 151.852 121.05 151.206 121.871 150.752C122.692 150.297 123.66 150.07 124.775 150.07C125.89 150.07 126.858 150.297 127.679 150.752C128.5 151.206 129.138 151.852 129.593 152.688C130.048 153.524 130.275 154.514 130.275 155.658C130.275 156.802 130.048 157.799 129.593 158.65C129.138 159.486 128.5 160.131 127.679 160.586C126.858 161.04 125.89 161.268 124.775 161.268ZM124.775 159.178C125.596 159.178 126.256 158.884 126.755 158.298C127.254 157.696 127.503 156.816 127.503 155.658C127.503 154.484 127.254 153.612 126.755 153.04C126.256 152.453 125.596 152.16 124.775 152.16C123.954 152.16 123.294 152.453 122.795 153.04C122.296 153.612 122.047 154.484 122.047 155.658C122.047 156.816 122.296 157.696 122.795 158.298C123.294 158.884 123.954 159.178 124.775 159.178ZM137.319 161.268C136.424 161.268 135.683 161.106 135.097 160.784C134.51 160.446 134.07 159.948 133.777 159.288C133.498 158.628 133.359 157.806 133.359 156.824V150.29H136.109V156.868C136.109 157.366 136.175 157.784 136.307 158.122C136.453 158.459 136.666 158.708 136.945 158.87C137.238 159.031 137.605 159.112 138.045 159.112C138.543 159.112 138.976 159.002 139.343 158.782C139.724 158.547 140.017 158.224 140.223 157.814C140.443 157.388 140.553 156.897 140.553 156.34V150.29H143.303V161.048H140.619V158.804H140.927C140.619 159.596 140.149 160.204 139.519 160.63C138.903 161.055 138.169 161.268 137.319 161.268ZM151.181 161.268C150.242 161.268 149.414 161.04 148.695 160.586C147.991 160.131 147.441 159.486 147.045 158.65C146.649 157.799 146.451 156.802 146.451 155.658C146.451 154.499 146.649 153.509 147.045 152.688C147.441 151.852 147.991 151.206 148.695 150.752C149.414 150.297 150.242 150.07 151.181 150.07C152.076 150.07 152.853 150.29 153.513 150.73C154.188 151.17 154.642 151.749 154.877 152.468H154.635V145.538H157.385V161.048H154.701V158.76H154.899C154.679 159.522 154.232 160.131 153.557 160.586C152.882 161.04 152.09 161.268 151.181 161.268ZM151.951 159.178C152.772 159.178 153.432 158.884 153.931 158.298C154.43 157.696 154.679 156.816 154.679 155.658C154.679 154.484 154.43 153.612 153.931 153.04C153.432 152.453 152.772 152.16 151.951 152.16C151.13 152.16 150.47 152.453 149.971 153.04C149.472 153.612 149.223 154.484 149.223 155.658C149.223 156.816 149.472 157.696 149.971 158.298C150.47 158.884 151.13 159.178 151.951 159.178ZM165.098 161.268C164.556 161.268 164.006 161.194 163.448 161.048C162.906 160.916 162.385 160.718 161.886 160.454C161.402 160.19 160.962 159.874 160.566 159.508L161.512 157.396C162.04 157.894 162.612 158.268 163.228 158.518C163.859 158.767 164.49 158.892 165.12 158.892C165.766 158.892 166.33 158.782 166.814 158.562C167.313 158.327 167.731 157.99 168.068 157.55C168.406 157.095 168.655 156.538 168.816 155.878C168.992 155.203 169.08 154.426 169.08 153.546V151.896H169.322C169.22 152.629 168.978 153.267 168.596 153.81C168.215 154.352 167.731 154.77 167.144 155.064C166.572 155.342 165.92 155.482 165.186 155.482C164.306 155.482 163.522 155.269 162.832 154.844C162.143 154.418 161.593 153.832 161.182 153.084C160.786 152.321 160.588 151.463 160.588 150.51C160.588 149.498 160.808 148.603 161.248 147.826C161.688 147.048 162.29 146.44 163.052 146C163.83 145.545 164.717 145.318 165.714 145.318C167.005 145.318 168.098 145.618 168.992 146.22C169.887 146.821 170.569 147.701 171.038 148.86C171.508 150.004 171.742 151.39 171.742 153.018C171.742 154.763 171.478 156.252 170.95 157.484C170.422 158.716 169.66 159.654 168.662 160.3C167.68 160.945 166.492 161.268 165.098 161.268ZM165.89 153.238C166.418 153.238 166.88 153.12 167.276 152.886C167.687 152.651 168.002 152.321 168.222 151.896C168.442 151.456 168.552 150.957 168.552 150.4C168.552 149.828 168.442 149.329 168.222 148.904C168.002 148.478 167.687 148.148 167.276 147.914C166.88 147.664 166.418 147.54 165.89 147.54C165.362 147.54 164.9 147.664 164.504 147.914C164.108 148.148 163.793 148.478 163.558 148.904C163.338 149.329 163.228 149.828 163.228 150.4C163.228 150.957 163.338 151.456 163.558 151.896C163.793 152.321 164.108 152.651 164.504 152.886C164.9 153.12 165.362 153.238 165.89 153.238ZM174.946 161.048V157.99H178.026V161.048H174.946ZM180.546 161.048L187.564 145.538H189.874L196.892 161.048H194.032L192.162 156.692L193.35 157.462H184.066L185.254 156.692L183.406 161.048H180.546ZM188.686 148.596L185.606 155.922L185.034 155.218H192.382L191.832 155.922L188.73 148.596H188.686ZM199.47 161.048V145.538H202.286V161.048H199.47Z" fill="white"/>
<defs>
<linearGradient id="paint0_linear_45_537" x1="115" y1="0" x2="115" y2="200" gradientUnits="userSpaceOnUse">
<stop stop-color="#02003B"/>
<stop offset="1" stop-color="#100863"/>
</linearGradient>
<linearGradient id="paint1_linear_45_537" x1="117.019" y1="82.7598" x2="117.019" y2="150.568" gradientUnits="userSpaceOnUse">
<stop stop-color="#0E075F"/>
<stop offset="1" stop-color="#1F1400"/>
</linearGradient>
</defs>
</svg>
