<svg width="230" height="200" viewBox="0 0 230 200" fill="none" xmlns="http://www.w3.org/2000/svg">
<rect width="230" height="200" rx="19.0476" fill="#FFF3D4"/>
<path d="M150.502 70.1474L157.35 59.8849" stroke="black" stroke-width="1.90476" stroke-linecap="round"/>
<path d="M143.78 66.797L153.719 45.4431" stroke="black" stroke-width="1.90476" stroke-linecap="round"/>
<path d="M132.222 63.4358L136.463 40.8455" stroke="black" stroke-width="1.90476" stroke-linecap="round"/>
<path d="M119.241 61.7032L118.013 38.8115" stroke="black" stroke-width="1.90476" stroke-linecap="round"/>
<path d="M105.69 63.1109L98.5918 40.0081" stroke="black" stroke-width="1.90476" stroke-linecap="round"/>
<path d="M91.2456 67.2124L78.833 45.9292" stroke="black" stroke-width="1.90476" stroke-linecap="round"/>
<path d="M138.448 64.79L142.557 51.0149" stroke="black" stroke-width="1.90357" stroke-linecap="round"/>
<path d="M98.2463 65.0512L93.4639 53.1962" stroke="black" stroke-width="1.90476" stroke-linecap="round"/>
<path d="M84.9016 70.5734L77.2195 60.8143" stroke="black" stroke-width="1.90476" stroke-linecap="round"/>
<path d="M126.025 62.2681L127.33 48.042" stroke="black" stroke-width="1.9021" stroke-linecap="round"/>
<path d="M111.22 61.8777L109.289 48.9952" stroke="black" stroke-width="1.90476" stroke-linecap="round"/>
<path d="M79.4416 74.1435L63.092 56.3728" stroke="black" stroke-width="1.90476" stroke-linecap="round"/>
<path d="M71.4684 81.6984L51.3242 67.9965" stroke="black" stroke-width="1.90476" stroke-linecap="round"/>
<path d="M63.8143 92.2906L40.8933 82.8955" stroke="black" stroke-width="1.90476" stroke-linecap="round"/>
<path d="M59.1054 103.682L33.313 98.9614" stroke="black" stroke-width="1.90476" stroke-linecap="round"/>
<path d="M57.1801 117.283L30.7524 117.708" stroke="black" stroke-width="1.90476" stroke-linecap="round"/>
<path d="M75.0474 77.5803L63.4552 67.9877" stroke="black" stroke-width="1.90484" stroke-linecap="round"/>
<path d="M57.9068 110.105L44.1541 108.609" stroke="black" stroke-width="1.90476" stroke-linecap="round"/>
<path d="M57.4879 123.936L43.9329 125.823" stroke="black" stroke-width="1.90476" stroke-linecap="round"/>
<path d="M66.7429 87.3069L53.4374 79.788" stroke="black" stroke-width="1.90404" stroke-linecap="round"/>
<path d="M60.4117 98.6291L46.9495 94.3499" stroke="black" stroke-width="1.90476" stroke-linecap="round"/>
<path d="M179.056 124.41L193.722 125.992" stroke="black" stroke-width="1.90476" stroke-linecap="round"/>
<path d="M179.85 118.451H205.286" stroke="black" stroke-width="1.90476" stroke-linecap="round"/>
<path d="M178.776 107.657L203.232 102.39" stroke="black" stroke-width="1.90476" stroke-linecap="round"/>
<path d="M174.876 96.3049L197.501 86.3298" stroke="black" stroke-width="1.90476" stroke-linecap="round"/>
<path d="M168.111 85.255L188.655 70.2693" stroke="black" stroke-width="1.90476" stroke-linecap="round"/>
<path d="M158.328 74.7312L174.959 55.9943" stroke="black" stroke-width="1.90476" stroke-linecap="round"/>
<path d="M179.782 113.123L195.29 111.19" stroke="black" stroke-width="1.90476" stroke-linecap="round"/>
<path d="M163.488 80.2893L173.585 71.6421" stroke="black" stroke-width="1.90476" stroke-linecap="round"/>
<path d="M176.99 101.818L188.89 98.2461" stroke="black" stroke-width="1.90476" stroke-linecap="round"/>
<path d="M171.516 89.416L183.764 82.761" stroke="black" stroke-width="1.90476" stroke-linecap="round"/>
<mask id="mask0_45_166" style="mask-type:alpha" maskUnits="userSpaceOnUse" x="48" y="61" width="140" height="67">
<path d="M187.799 61.3457H48.8828V127.371H187.799V61.3457Z" fill="#D9D9D9"/>
</mask>
<g mask="url(#mask0_45_166)">
<path d="M179.021 117.556C179.021 147.994 151.938 172.815 118.341 172.815C84.7443 172.815 57.6616 147.994 57.6616 117.556C57.6616 87.1189 84.7443 62.2981 118.341 62.2981C151.938 62.2981 179.021 87.1189 179.021 117.556Z" fill="#F1B00A" stroke="black" stroke-width="1.90476"/>
<path d="M179.021 117.556C179.021 147.994 151.938 172.815 118.341 172.815C84.7443 172.815 57.6616 147.994 57.6616 117.556C57.6616 87.1189 84.7443 62.2981 118.341 62.2981C151.938 62.2981 179.021 87.1189 179.021 117.556Z" fill="#F1B00A" stroke="black" stroke-width="1.90476"/>
</g>
<mask id="mask1_45_166" style="mask-type:alpha" maskUnits="userSpaceOnUse" x="58" y="50" width="121" height="126">
<path d="M178.016 110.314C178.016 77.3564 151.299 50.6389 118.341 50.6389C85.3833 50.6389 58.6658 77.3564 58.6658 110.314V115.876C58.6658 148.834 85.3833 175.551 118.341 175.551C151.299 175.551 178.016 148.834 178.016 115.876V110.314Z" fill="#D9D9D9"/>
</mask>
<g mask="url(#mask1_45_166)">
<mask id="mask2_45_166" style="mask-type:alpha" maskUnits="userSpaceOnUse" x="48" y="75" width="134" height="53">
<path d="M181.929 75.6213H48.8828V127.371H181.929V75.6213Z" fill="#D9D9D9"/>
</mask>
<g mask="url(#mask2_45_166)">
<path fill-rule="evenodd" clip-rule="evenodd" d="M80.9555 104.782C80.9399 104.782 80.9243 104.782 80.9087 104.782C66.4913 104.782 52.7959 116.453 52.7959 128.591C52.7959 140.728 64.4833 150.568 78.9005 150.568C90.9083 150.568 101.023 143.743 104.068 134.448C108.829 138.706 115.585 141.364 123.078 141.364C127.276 141.364 131.413 140.375 135.168 138.672C139.811 144.755 147.92 148.785 157.146 148.785C171.563 148.785 181.243 138.945 181.243 126.808C181.243 114.67 171.563 104.831 157.146 104.831C153.334 104.831 149.712 105.519 146.447 106.755C143.571 104.288 139.552 102.719 134.855 101.868C133.186 91.086 122.233 82.7595 108.971 82.7595C95.2622 82.7595 82.2062 93.311 80.9555 104.782Z" fill="url(#paint0_linear_45_166)"/>
<path fill-rule="evenodd" clip-rule="evenodd" d="M105.962 133.037C110.211 136.67 116.121 138.923 122.657 138.923C126.898 138.923 131.069 137.798 134.761 135.901C138.064 143.424 146.659 148.786 156.742 148.786C169.68 148.786 178.367 139.956 178.367 129.063C178.367 118.171 169.68 109.34 156.742 109.34C153.047 109.34 149.553 110.06 146.445 111.343C143.939 106.627 138.375 104.126 131.423 103.196C129.779 93.6565 120.026 86.3291 108.24 86.3291C95.6906 86.3291 84.7763 97.1169 84.1306 107.705C71.4455 108.064 59.583 118.361 59.583 129.062C59.583 139.954 70.0718 148.785 83.0102 148.785C94.3316 148.785 103.777 142.024 105.962 133.037Z" fill="#FFDFA6"/>
<path fill-rule="evenodd" clip-rule="evenodd" d="M93.8237 112.241C93.8235 112.229 93.8235 112.217 93.8235 112.205C93.8235 106.291 100.496 100.605 107.519 100.605C113.918 100.605 119.212 104.583 120.105 109.761C124.068 110.292 127.2 111.763 128.451 114.578C130.345 113.637 132.553 113.096 134.912 113.096C141.935 113.096 146.651 117.89 146.651 123.803C146.651 129.716 141.935 134.51 134.912 134.51C129.226 134.51 124.411 131.368 122.784 127.035C120.578 128.352 117.987 129.156 115.346 129.156C112.18 129.156 108.701 128.545 105.834 127.333C104.102 131.512 99.3787 134.51 93.8237 134.51C86.7999 134.51 81.106 129.717 81.106 123.803C81.106 118.165 87.1711 112.734 93.8237 112.241Z" fill="#FFF3D4"/>
</g>
</g>
<path d="M57.5989 126.684H178.933" stroke="black" stroke-width="1.90476"/>
<path d="M25.5935 161.048L32.6115 145.538H34.9215L41.9395 161.048H39.0795L37.2095 156.692L38.3975 157.462H29.1135L30.3015 156.692L28.4535 161.048H25.5935ZM33.7335 148.596L30.6535 155.922L30.0815 155.218H37.4295L36.8795 155.922L33.7775 148.596H33.7335ZM50.4566 161.268C49.5473 161.268 48.748 161.04 48.0586 160.586C47.384 160.131 46.9366 159.522 46.7166 158.76H46.9366V161.048H44.2526V145.538H47.0026V152.468H46.7386C46.9733 151.749 47.428 151.17 48.1026 150.73C48.7773 150.29 49.562 150.07 50.4566 150.07C51.41 150.07 52.2386 150.297 52.9426 150.752C53.6466 151.206 54.1966 151.852 54.5926 152.688C54.9886 153.509 55.1866 154.499 55.1866 155.658C55.1866 156.802 54.9886 157.799 54.5926 158.65C54.1966 159.486 53.6393 160.131 52.9206 160.586C52.2166 161.04 51.3953 161.268 50.4566 161.268ZM49.6866 159.178C50.508 159.178 51.168 158.884 51.6666 158.298C52.1653 157.696 52.4146 156.816 52.4146 155.658C52.4146 154.484 52.1653 153.612 51.6666 153.04C51.168 152.453 50.508 152.16 49.6866 152.16C48.8653 152.16 48.2053 152.453 47.7066 153.04C47.208 153.612 46.9586 154.484 46.9586 155.658C46.9586 156.816 47.208 157.696 47.7066 158.298C48.2053 158.884 48.8653 159.178 49.6866 159.178ZM63.23 161.268C62.1154 161.268 61.1474 161.04 60.326 160.586C59.5047 160.131 58.8667 159.486 58.412 158.65C57.9574 157.799 57.73 156.802 57.73 155.658C57.73 154.514 57.9574 153.524 58.412 152.688C58.8667 151.852 59.5047 151.206 60.326 150.752C61.1474 150.297 62.1154 150.07 63.23 150.07C64.3447 150.07 65.3127 150.297 66.134 150.752C66.9554 151.206 67.5934 151.852 68.048 152.688C68.5027 153.524 68.73 154.514 68.73 155.658C68.73 156.802 68.5027 157.799 68.048 158.65C67.5934 159.486 66.9554 160.131 66.134 160.586C65.3127 161.04 64.3447 161.268 63.23 161.268ZM63.23 159.178C64.0514 159.178 64.7114 158.884 65.21 158.298C65.7087 157.696 65.958 156.816 65.958 155.658C65.958 154.484 65.7087 153.612 65.21 153.04C64.7114 152.453 64.0514 152.16 63.23 152.16C62.4087 152.16 61.7487 152.453 61.25 153.04C60.7514 153.612 60.502 154.484 60.502 155.658C60.502 156.816 60.7514 157.696 61.25 158.298C61.7487 158.884 62.4087 159.178 63.23 159.178ZM74.833 161.048L70.169 150.29H73.095L76.417 158.628H75.757L79.189 150.29H81.939L77.209 161.048H74.833ZM89.2337 161.268C88.0164 161.268 86.9677 161.04 86.0877 160.586C85.2077 160.131 84.5257 159.486 84.0417 158.65C83.5724 157.814 83.3377 156.824 83.3377 155.68C83.3377 154.565 83.565 153.59 84.0197 152.754C84.489 151.918 85.127 151.265 85.9337 150.796C86.755 150.312 87.6864 150.07 88.7277 150.07C89.7544 150.07 90.6344 150.29 91.3677 150.73C92.101 151.17 92.6657 151.793 93.0617 152.6C93.4724 153.406 93.6777 154.367 93.6777 155.482V156.296H85.5597V154.712H91.7417L91.3897 155.042C91.3897 154.044 91.1697 153.282 90.7297 152.754C90.2897 152.211 89.659 151.94 88.8377 151.94C88.2217 151.94 87.6937 152.086 87.2537 152.38C86.8284 152.658 86.4984 153.062 86.2637 153.59C86.0437 154.103 85.9337 154.719 85.9337 155.438V155.592C85.9337 156.398 86.0584 157.066 86.3077 157.594C86.557 158.122 86.931 158.518 87.4297 158.782C87.9284 159.046 88.5444 159.178 89.2777 159.178C89.879 159.178 90.4804 159.09 91.0817 158.914C91.683 158.723 92.233 158.43 92.7317 158.034L93.5017 159.882C92.9884 160.307 92.343 160.644 91.5657 160.894C90.7884 161.143 90.011 161.268 89.2337 161.268ZM104.216 161.268C102.602 161.268 101.216 160.945 100.058 160.3C98.9135 159.64 98.0335 158.716 97.4175 157.528C96.8015 156.325 96.4935 154.91 96.4935 153.282C96.4935 151.654 96.8015 150.246 97.4175 149.058C98.0335 147.87 98.9135 146.953 100.058 146.308C101.216 145.648 102.602 145.318 104.216 145.318C105.257 145.318 106.24 145.479 107.164 145.802C108.102 146.124 108.872 146.586 109.474 147.188L108.55 149.432C107.89 148.874 107.215 148.471 106.526 148.222C105.836 147.958 105.096 147.826 104.304 147.826C102.734 147.826 101.539 148.302 100.718 149.256C99.8962 150.194 99.4855 151.536 99.4855 153.282C99.4855 155.027 99.8962 156.376 100.718 157.33C101.539 158.283 102.734 158.76 104.304 158.76C105.096 158.76 105.836 158.635 106.526 158.386C107.215 158.122 107.89 157.711 108.55 157.154L109.474 159.398C108.872 159.984 108.102 160.446 107.164 160.784C106.24 161.106 105.257 161.268 104.216 161.268ZM116.287 161.268C115.011 161.268 114.065 160.923 113.449 160.234C112.848 159.53 112.547 158.503 112.547 157.154V145.538H115.297V157.022C115.297 157.447 115.356 157.814 115.473 158.122C115.605 158.415 115.796 158.635 116.045 158.782C116.294 158.928 116.602 159.002 116.969 159.002C117.13 159.002 117.292 158.994 117.453 158.98C117.614 158.965 117.768 158.936 117.915 158.892L117.871 161.07C117.607 161.128 117.343 161.172 117.079 161.202C116.83 161.246 116.566 161.268 116.287 161.268ZM125.251 161.268C124.136 161.268 123.168 161.04 122.347 160.586C121.526 160.131 120.888 159.486 120.433 158.65C119.978 157.799 119.751 156.802 119.751 155.658C119.751 154.514 119.978 153.524 120.433 152.688C120.888 151.852 121.526 151.206 122.347 150.752C123.168 150.297 124.136 150.07 125.251 150.07C126.366 150.07 127.334 150.297 128.155 150.752C128.976 151.206 129.614 151.852 130.069 152.688C130.524 153.524 130.751 154.514 130.751 155.658C130.751 156.802 130.524 157.799 130.069 158.65C129.614 159.486 128.976 160.131 128.155 160.586C127.334 161.04 126.366 161.268 125.251 161.268ZM125.251 159.178C126.072 159.178 126.732 158.884 127.231 158.298C127.73 157.696 127.979 156.816 127.979 155.658C127.979 154.484 127.73 153.612 127.231 153.04C126.732 152.453 126.072 152.16 125.251 152.16C124.43 152.16 123.77 152.453 123.271 153.04C122.772 153.612 122.523 154.484 122.523 155.658C122.523 156.816 122.772 157.696 123.271 158.298C123.77 158.884 124.43 159.178 125.251 159.178ZM137.795 161.268C136.9 161.268 136.16 161.106 135.573 160.784C134.986 160.446 134.546 159.948 134.253 159.288C133.974 158.628 133.835 157.806 133.835 156.824V150.29H136.585V156.868C136.585 157.366 136.651 157.784 136.783 158.122C136.93 158.459 137.142 158.708 137.421 158.87C137.714 159.031 138.081 159.112 138.521 159.112C139.02 159.112 139.452 159.002 139.819 158.782C140.2 158.547 140.494 158.224 140.699 157.814C140.919 157.388 141.029 156.897 141.029 156.34V150.29H143.779V161.048H141.095V158.804H141.403C141.095 159.596 140.626 160.204 139.995 160.63C139.379 161.055 138.646 161.268 137.795 161.268ZM151.657 161.268C150.718 161.268 149.89 161.04 149.171 160.586C148.467 160.131 147.917 159.486 147.521 158.65C147.125 157.799 146.927 156.802 146.927 155.658C146.927 154.499 147.125 153.509 147.521 152.688C147.917 151.852 148.467 151.206 149.171 150.752C149.89 150.297 150.718 150.07 151.657 150.07C152.552 150.07 153.329 150.29 153.989 150.73C154.664 151.17 155.118 151.749 155.353 152.468H155.111V145.538H157.861V161.048H155.177V158.76H155.375C155.155 159.522 154.708 160.131 154.033 160.586C153.358 161.04 152.566 161.268 151.657 161.268ZM152.427 159.178C153.248 159.178 153.908 158.884 154.407 158.298C154.906 157.696 155.155 156.816 155.155 155.658C155.155 154.484 154.906 153.612 154.407 153.04C153.908 152.453 153.248 152.16 152.427 152.16C151.606 152.16 150.946 152.453 150.447 153.04C149.948 153.612 149.699 154.484 149.699 155.658C149.699 156.816 149.948 157.696 150.447 158.298C150.946 158.884 151.606 159.178 152.427 159.178ZM165.575 161.268C165.032 161.268 164.482 161.194 163.925 161.048C163.382 160.916 162.861 160.718 162.363 160.454C161.879 160.19 161.439 159.874 161.043 159.508L161.989 157.396C162.517 157.894 163.089 158.268 163.705 158.518C164.335 158.767 164.966 158.892 165.597 158.892C166.242 158.892 166.807 158.782 167.291 158.562C167.789 158.327 168.207 157.99 168.545 157.55C168.882 157.095 169.131 156.538 169.293 155.878C169.469 155.203 169.557 154.426 169.557 153.546V151.896H169.799C169.696 152.629 169.454 153.267 169.073 153.81C168.691 154.352 168.207 154.77 167.621 155.064C167.049 155.342 166.396 155.482 165.663 155.482C164.783 155.482 163.998 155.269 163.309 154.844C162.619 154.418 162.069 153.832 161.659 153.084C161.263 152.321 161.065 151.463 161.065 150.51C161.065 149.498 161.285 148.603 161.725 147.826C162.165 147.048 162.766 146.44 163.529 146C164.306 145.545 165.193 145.318 166.191 145.318C167.481 145.318 168.574 145.618 169.469 146.22C170.363 146.821 171.045 147.701 171.515 148.86C171.984 150.004 172.219 151.39 172.219 153.018C172.219 154.763 171.955 156.252 171.427 157.484C170.899 158.716 170.136 159.654 169.139 160.3C168.156 160.945 166.968 161.268 165.575 161.268ZM166.367 153.238C166.895 153.238 167.357 153.12 167.753 152.886C168.163 152.651 168.479 152.321 168.699 151.896C168.919 151.456 169.029 150.957 169.029 150.4C169.029 149.828 168.919 149.329 168.699 148.904C168.479 148.478 168.163 148.148 167.753 147.914C167.357 147.664 166.895 147.54 166.367 147.54C165.839 147.54 165.377 147.664 164.981 147.914C164.585 148.148 164.269 148.478 164.035 148.904C163.815 149.329 163.705 149.828 163.705 150.4C163.705 150.957 163.815 151.456 164.035 151.896C164.269 152.321 164.585 152.651 164.981 152.886C165.377 153.12 165.839 153.238 166.367 153.238ZM175.422 161.048V157.99H178.502V161.048H175.422ZM181.023 161.048L188.041 145.538H190.351L197.369 161.048H194.509L192.639 156.692L193.827 157.462H184.543L185.731 156.692L183.883 161.048H181.023ZM189.163 148.596L186.083 155.922L185.511 155.218H192.859L192.309 155.922L189.207 148.596H189.163ZM199.946 161.048V145.538H202.762V161.048H199.946Z" fill="black"/>
<defs>
<linearGradient id="paint0_linear_45_166" x1="117.019" y1="82.7595" x2="117.019" y2="150.568" gradientUnits="userSpaceOnUse">
<stop stop-color="#DE8E00"/>
<stop offset="1" stop-color="#784D00"/>
</linearGradient>
</defs>
</svg>
