<svg width="230" height="200" viewBox="0 0 230 200" fill="none" xmlns="http://www.w3.org/2000/svg">
<rect width="230" height="200" rx="19.0476" fill="#02003B"/>
<path d="M150.502 70.1472L157.35 59.8848" stroke="#FFFEFB" stroke-width="1.90476" stroke-linecap="round"/>
<path d="M143.78 66.7968L153.719 45.4429" stroke="#FFFEFB" stroke-width="1.90476" stroke-linecap="round"/>
<path d="M132.222 63.4358L136.463 40.8455" stroke="#FFFEFB" stroke-width="1.90476" stroke-linecap="round"/>
<path d="M119.241 61.7032L118.013 38.8115" stroke="#FFFEFB" stroke-width="1.90476" stroke-linecap="round"/>
<path d="M105.69 63.1107L98.5918 40.0078" stroke="#FFFEFB" stroke-width="1.90476" stroke-linecap="round"/>
<path d="M91.2456 67.2124L78.833 45.9292" stroke="#FFFEFB" stroke-width="1.90476" stroke-linecap="round"/>
<path d="M138.448 64.79L142.557 51.0149" stroke="#FFFEFB" stroke-width="1.90357" stroke-linecap="round"/>
<path d="M98.2463 65.0511L93.4639 53.196" stroke="#FFFEFB" stroke-width="1.90476" stroke-linecap="round"/>
<path d="M84.9016 70.5733L77.2195 60.8142" stroke="#FFFEFB" stroke-width="1.90476" stroke-linecap="round"/>
<path d="M126.025 62.2681L127.33 48.042" stroke="#FFFEFB" stroke-width="1.9021" stroke-linecap="round"/>
<path d="M111.22 61.8778L109.289 48.9954" stroke="#FFFEFB" stroke-width="1.90476" stroke-linecap="round"/>
<path d="M79.4416 74.1435L63.092 56.3728" stroke="#FFFEFB" stroke-width="1.90476" stroke-linecap="round"/>
<path d="M71.4684 81.6982L51.3242 67.9963" stroke="#FFFEFB" stroke-width="1.90476" stroke-linecap="round"/>
<path d="M63.8143 92.2906L40.8933 82.8955" stroke="#FFFEFB" stroke-width="1.90476" stroke-linecap="round"/>
<path d="M59.1054 103.682L33.313 98.9617" stroke="#FFFEFB" stroke-width="1.90476" stroke-linecap="round"/>
<path d="M57.1801 117.283L30.7524 117.707" stroke="#FFFEFB" stroke-width="1.90476" stroke-linecap="round"/>
<path d="M75.0474 77.5803L63.4552 67.9877" stroke="#FFFEFB" stroke-width="1.90484" stroke-linecap="round"/>
<path d="M57.9068 110.105L44.1541 108.609" stroke="#FFFEFB" stroke-width="1.90476" stroke-linecap="round"/>
<path d="M57.4879 123.936L43.9329 125.823" stroke="#FFFEFB" stroke-width="1.90476" stroke-linecap="round"/>
<path d="M66.7429 87.3069L53.4374 79.788" stroke="#FFFEFB" stroke-width="1.90404" stroke-linecap="round"/>
<path d="M60.4117 98.6291L46.9495 94.3499" stroke="#FFFEFB" stroke-width="1.90476" stroke-linecap="round"/>
<path d="M179.056 124.41L193.722 125.992" stroke="#FFFEFB" stroke-width="1.90476" stroke-linecap="round"/>
<path d="M179.85 118.45H205.286" stroke="#FFFEFB" stroke-width="1.90476" stroke-linecap="round"/>
<path d="M178.776 107.657L203.232 102.39" stroke="#FFFEFB" stroke-width="1.90476" stroke-linecap="round"/>
<path d="M174.876 96.3049L197.501 86.3298" stroke="#FFFEFB" stroke-width="1.90476" stroke-linecap="round"/>
<path d="M168.111 85.255L188.655 70.2693" stroke="#FFFEFB" stroke-width="1.90476" stroke-linecap="round"/>
<path d="M158.328 74.7311L174.959 55.9941" stroke="#FFFEFB" stroke-width="1.90476" stroke-linecap="round"/>
<path d="M179.782 113.123L195.29 111.19" stroke="#FFFEFB" stroke-width="1.90476" stroke-linecap="round"/>
<path d="M163.488 80.2893L173.585 71.6421" stroke="#FFFEFB" stroke-width="1.90476" stroke-linecap="round"/>
<path d="M176.99 101.818L188.89 98.2461" stroke="#FFFEFB" stroke-width="1.90476" stroke-linecap="round"/>
<path d="M171.516 89.416L183.764 82.761" stroke="#FFFEFB" stroke-width="1.90476" stroke-linecap="round"/>
<mask id="mask0_45_272" style="mask-type:alpha" maskUnits="userSpaceOnUse" x="48" y="61" width="140" height="67">
<path d="M187.799 61.3457H48.8828V127.371H187.799V61.3457Z" fill="#D9D9D9"/>
</mask>
<g mask="url(#mask0_45_272)">
<path d="M179.021 117.556C179.021 147.994 151.938 172.815 118.341 172.815C84.7443 172.815 57.6616 147.994 57.6616 117.556C57.6616 87.1189 84.7443 62.2981 118.341 62.2981C151.938 62.2981 179.021 87.1189 179.021 117.556Z" fill="#F1B00A" stroke="#FFFEFB" stroke-width="1.90476"/>
<path d="M179.021 117.556C179.021 147.994 151.938 172.815 118.341 172.815C84.7443 172.815 57.6616 147.994 57.6616 117.556C57.6616 87.1189 84.7443 62.2981 118.341 62.2981C151.938 62.2981 179.021 87.1189 179.021 117.556Z" fill="#F1B00A" stroke="#FFFEFB" stroke-width="1.90476"/>
</g>
<mask id="mask1_45_272" style="mask-type:alpha" maskUnits="userSpaceOnUse" x="58" y="50" width="121" height="126">
<path d="M178.016 110.314C178.016 77.3564 151.299 50.6389 118.341 50.6389C85.3833 50.6389 58.6658 77.3564 58.6658 110.314V115.876C58.6658 148.834 85.3833 175.551 118.341 175.551C151.299 175.551 178.016 148.834 178.016 115.876V110.314Z" fill="#D9D9D9"/>
</mask>
<g mask="url(#mask1_45_272)">
<mask id="mask2_45_272" style="mask-type:alpha" maskUnits="userSpaceOnUse" x="48" y="75" width="134" height="53">
<path d="M181.929 75.6216H48.8828V127.371H181.929V75.6216Z" fill="#D9D9D9"/>
</mask>
<g mask="url(#mask2_45_272)">
<path fill-rule="evenodd" clip-rule="evenodd" d="M80.9555 104.783C80.9399 104.783 80.9243 104.783 80.9087 104.783C66.4913 104.783 52.7959 116.453 52.7959 128.591C52.7959 140.729 64.4833 150.568 78.9005 150.568C90.9083 150.568 101.023 143.743 104.068 134.449C108.829 138.706 115.585 141.365 123.078 141.365C127.276 141.365 131.413 140.375 135.168 138.673C139.811 144.756 147.92 148.785 157.146 148.785C171.563 148.785 181.243 138.946 181.243 126.808C181.243 114.67 171.563 104.831 157.146 104.831C153.334 104.831 149.712 105.519 146.447 106.756C143.571 104.288 139.552 102.719 134.855 101.869C133.186 91.0862 122.233 82.7598 108.971 82.7598C95.2622 82.7598 82.2062 93.3112 80.9555 104.783Z" fill="#C28006"/>
<path fill-rule="evenodd" clip-rule="evenodd" d="M105.962 133.037C110.211 136.671 116.121 138.924 122.657 138.924C126.898 138.924 131.069 137.798 134.761 135.902C138.064 143.424 146.659 148.787 156.742 148.787C169.68 148.787 178.367 139.956 178.367 129.064C178.367 118.171 169.68 109.341 156.742 109.341C153.047 109.341 149.553 110.061 146.445 111.343C143.939 106.628 138.375 104.126 131.423 103.196C129.779 93.657 120.026 86.3296 108.24 86.3296C95.6906 86.3296 84.7763 97.1174 84.1306 107.705C71.4455 108.064 59.583 118.361 59.583 129.062C59.583 139.955 70.0718 148.785 83.0102 148.785C94.3316 148.785 103.777 142.025 105.962 133.037Z" fill="#F6C855"/>
<path fill-rule="evenodd" clip-rule="evenodd" d="M93.8237 112.241C93.8235 112.229 93.8235 112.217 93.8235 112.205C93.8235 106.292 100.496 100.606 107.519 100.606C113.918 100.606 119.212 104.583 120.105 109.762C124.068 110.292 127.2 111.763 128.451 114.579C130.345 113.637 132.553 113.097 134.912 113.097C141.935 113.097 146.651 117.89 146.651 123.803C146.651 129.717 141.935 134.51 134.912 134.51C129.226 134.51 124.411 131.369 122.784 127.035C120.578 128.353 117.987 129.157 115.346 129.157C112.18 129.157 108.701 128.546 105.834 127.333C104.102 131.512 99.3787 134.511 93.8237 134.511C86.7999 134.511 81.106 129.717 81.106 123.804C81.106 118.166 87.1711 112.735 93.8237 112.241Z" fill="#FFF2DD"/>
</g>
</g>
<path d="M57.5989 126.684H178.933" stroke="#FFFEFB" stroke-width="1.90476"/>
<path d="M25.022 161.048L32.04 145.538H34.35L41.368 161.048H38.508L36.638 156.692L37.826 157.462H28.542L29.73 156.692L27.882 161.048H25.022ZM33.162 148.596L30.082 155.922L29.51 155.218H36.858L36.308 155.922L33.206 148.596H33.162ZM49.8851 161.268C48.9758 161.268 48.1764 161.04 47.4871 160.586C46.8124 160.131 46.3651 159.522 46.1451 158.76H46.3651V161.048H43.6811V145.538H46.4311V152.468H46.1671C46.4018 151.749 46.8564 151.17 47.5311 150.73C48.2058 150.29 48.9904 150.07 49.8851 150.07C50.8384 150.07 51.6671 150.297 52.3711 150.752C53.0751 151.206 53.6251 151.852 54.0211 152.688C54.4171 153.509 54.6151 154.499 54.6151 155.658C54.6151 156.802 54.4171 157.799 54.0211 158.65C53.6251 159.486 53.0678 160.131 52.3491 160.586C51.6451 161.04 50.8238 161.268 49.8851 161.268ZM49.1151 159.178C49.9364 159.178 50.5964 158.884 51.0951 158.298C51.5938 157.696 51.8431 156.816 51.8431 155.658C51.8431 154.484 51.5938 153.612 51.0951 153.04C50.5964 152.453 49.9364 152.16 49.1151 152.16C48.2938 152.16 47.6338 152.453 47.1351 153.04C46.6364 153.612 46.3871 154.484 46.3871 155.658C46.3871 156.816 46.6364 157.696 47.1351 158.298C47.6338 158.884 48.2938 159.178 49.1151 159.178ZM62.6585 161.268C61.5438 161.268 60.5758 161.04 59.7545 160.586C58.9332 160.131 58.2952 159.486 57.8405 158.65C57.3858 157.799 57.1585 156.802 57.1585 155.658C57.1585 154.514 57.3858 153.524 57.8405 152.688C58.2952 151.852 58.9332 151.206 59.7545 150.752C60.5758 150.297 61.5438 150.07 62.6585 150.07C63.7732 150.07 64.7412 150.297 65.5625 150.752C66.3838 151.206 67.0218 151.852 67.4765 152.688C67.9312 153.524 68.1585 154.514 68.1585 155.658C68.1585 156.802 67.9312 157.799 67.4765 158.65C67.0218 159.486 66.3838 160.131 65.5625 160.586C64.7412 161.04 63.7732 161.268 62.6585 161.268ZM62.6585 159.178C63.4798 159.178 64.1398 158.884 64.6385 158.298C65.1372 157.696 65.3865 156.816 65.3865 155.658C65.3865 154.484 65.1372 153.612 64.6385 153.04C64.1398 152.453 63.4798 152.16 62.6585 152.16C61.8372 152.16 61.1772 152.453 60.6785 153.04C60.1798 153.612 59.9305 154.484 59.9305 155.658C59.9305 156.816 60.1798 157.696 60.6785 158.298C61.1772 158.884 61.8372 159.178 62.6585 159.178ZM74.2614 161.048L69.5974 150.29H72.5234L75.8454 158.628H75.1854L78.6174 150.29H81.3674L76.6374 161.048H74.2614ZM88.6622 161.268C87.4448 161.268 86.3962 161.04 85.5162 160.586C84.6362 160.131 83.9542 159.486 83.4702 158.65C83.0008 157.814 82.7662 156.824 82.7662 155.68C82.7662 154.565 82.9935 153.59 83.4482 152.754C83.9175 151.918 84.5555 151.265 85.3622 150.796C86.1835 150.312 87.1148 150.07 88.1562 150.07C89.1828 150.07 90.0628 150.29 90.7962 150.73C91.5295 151.17 92.0942 151.793 92.4902 152.6C92.9008 153.406 93.1062 154.367 93.1062 155.482V156.296H84.9882V154.712H91.1702L90.8182 155.042C90.8182 154.044 90.5982 153.282 90.1582 152.754C89.7182 152.211 89.0875 151.94 88.2662 151.94C87.6502 151.94 87.1222 152.086 86.6822 152.38C86.2568 152.658 85.9268 153.062 85.6922 153.59C85.4722 154.103 85.3622 154.719 85.3622 155.438V155.592C85.3622 156.398 85.4868 157.066 85.7362 157.594C85.9855 158.122 86.3595 158.518 86.8582 158.782C87.3568 159.046 87.9728 159.178 88.7062 159.178C89.3075 159.178 89.9088 159.09 90.5102 158.914C91.1115 158.723 91.6615 158.43 92.1602 158.034L92.9302 159.882C92.4168 160.307 91.7715 160.644 90.9942 160.894C90.2168 161.143 89.4395 161.268 88.6622 161.268ZM103.644 161.268C102.031 161.268 100.645 160.945 99.486 160.3C98.342 159.64 97.462 158.716 96.846 157.528C96.23 156.325 95.922 154.91 95.922 153.282C95.922 151.654 96.23 150.246 96.846 149.058C97.462 147.87 98.342 146.953 99.486 146.308C100.645 145.648 102.031 145.318 103.644 145.318C104.685 145.318 105.668 145.479 106.592 145.802C107.531 146.124 108.301 146.586 108.902 147.188L107.978 149.432C107.318 148.874 106.643 148.471 105.954 148.222C105.265 147.958 104.524 147.826 103.732 147.826C102.163 147.826 100.967 148.302 100.146 149.256C99.3247 150.194 98.914 151.536 98.914 153.282C98.914 155.027 99.3247 156.376 100.146 157.33C100.967 158.283 102.163 158.76 103.732 158.76C104.524 158.76 105.265 158.635 105.954 158.386C106.643 158.122 107.318 157.711 107.978 157.154L108.902 159.398C108.301 159.984 107.531 160.446 106.592 160.784C105.668 161.106 104.685 161.268 103.644 161.268ZM115.716 161.268C114.44 161.268 113.494 160.923 112.878 160.234C112.276 159.53 111.976 158.503 111.976 157.154V145.538H114.726V157.022C114.726 157.447 114.784 157.814 114.902 158.122C115.034 158.415 115.224 158.635 115.474 158.782C115.723 158.928 116.031 159.002 116.398 159.002C116.559 159.002 116.72 158.994 116.882 158.98C117.043 158.965 117.197 158.936 117.344 158.892L117.3 161.07C117.036 161.128 116.772 161.172 116.508 161.202C116.258 161.246 115.994 161.268 115.716 161.268ZM124.68 161.268C123.565 161.268 122.597 161.04 121.776 160.586C120.954 160.131 120.316 159.486 119.862 158.65C119.407 157.799 119.18 156.802 119.18 155.658C119.18 154.514 119.407 153.524 119.862 152.688C120.316 151.852 120.954 151.206 121.776 150.752C122.597 150.297 123.565 150.07 124.68 150.07C125.794 150.07 126.762 150.297 127.584 150.752C128.405 151.206 129.043 151.852 129.498 152.688C129.952 153.524 130.18 154.514 130.18 155.658C130.18 156.802 129.952 157.799 129.498 158.65C129.043 159.486 128.405 160.131 127.584 160.586C126.762 161.04 125.794 161.268 124.68 161.268ZM124.68 159.178C125.501 159.178 126.161 158.884 126.66 158.298C127.158 157.696 127.408 156.816 127.408 155.658C127.408 154.484 127.158 153.612 126.66 153.04C126.161 152.453 125.501 152.16 124.68 152.16C123.858 152.16 123.198 152.453 122.7 153.04C122.201 153.612 121.952 154.484 121.952 155.658C121.952 156.816 122.201 157.696 122.7 158.298C123.198 158.884 123.858 159.178 124.68 159.178ZM137.223 161.268C136.329 161.268 135.588 161.106 135.001 160.784C134.415 160.446 133.975 159.948 133.681 159.288C133.403 158.628 133.263 157.806 133.263 156.824V150.29H136.013V156.868C136.013 157.366 136.079 157.784 136.211 158.122C136.358 158.459 136.571 158.708 136.849 158.87C137.143 159.031 137.509 159.112 137.949 159.112C138.448 159.112 138.881 159.002 139.247 158.782C139.629 158.547 139.922 158.224 140.127 157.814C140.347 157.388 140.457 156.897 140.457 156.34V150.29H143.207V161.048H140.523V158.804H140.831C140.523 159.596 140.054 160.204 139.423 160.63C138.807 161.055 138.074 161.268 137.223 161.268ZM151.086 161.268C150.147 161.268 149.318 161.04 148.6 160.586C147.896 160.131 147.346 159.486 146.95 158.65C146.554 157.799 146.356 156.802 146.356 155.658C146.356 154.499 146.554 153.509 146.95 152.688C147.346 151.852 147.896 151.206 148.6 150.752C149.318 150.297 150.147 150.07 151.086 150.07C151.98 150.07 152.758 150.29 153.418 150.73C154.092 151.17 154.547 151.749 154.782 152.468H154.54V145.538H157.29V161.048H154.606V158.76H154.804C154.584 159.522 154.136 160.131 153.462 160.586C152.787 161.04 151.995 161.268 151.086 161.268ZM151.856 159.178C152.677 159.178 153.337 158.884 153.836 158.298C154.334 157.696 154.584 156.816 154.584 155.658C154.584 154.484 154.334 153.612 153.836 153.04C153.337 152.453 152.677 152.16 151.856 152.16C151.034 152.16 150.374 152.453 149.876 153.04C149.377 153.612 149.128 154.484 149.128 155.658C149.128 156.816 149.377 157.696 149.876 158.298C150.374 158.884 151.034 159.178 151.856 159.178ZM165.003 161.268C164.46 161.268 163.91 161.194 163.353 161.048C162.81 160.916 162.29 160.718 161.791 160.454C161.307 160.19 160.867 159.874 160.471 159.508L161.417 157.396C161.945 157.894 162.517 158.268 163.133 158.518C163.764 158.767 164.394 158.892 165.025 158.892C165.67 158.892 166.235 158.782 166.719 158.562C167.218 158.327 167.636 157.99 167.973 157.55C168.31 157.095 168.56 156.538 168.721 155.878C168.897 155.203 168.985 154.426 168.985 153.546V151.896H169.227C169.124 152.629 168.882 153.267 168.501 153.81C168.12 154.352 167.636 154.77 167.049 155.064C166.477 155.342 165.824 155.482 165.091 155.482C164.211 155.482 163.426 155.269 162.737 154.844C162.048 154.418 161.498 153.832 161.087 153.084C160.691 152.321 160.493 151.463 160.493 150.51C160.493 149.498 160.713 148.603 161.153 147.826C161.593 147.048 162.194 146.44 162.957 146C163.734 145.545 164.622 145.318 165.619 145.318C166.91 145.318 168.002 145.618 168.897 146.22C169.792 146.821 170.474 147.701 170.943 148.86C171.412 150.004 171.647 151.39 171.647 153.018C171.647 154.763 171.383 156.252 170.855 157.484C170.327 158.716 169.564 159.654 168.567 160.3C167.584 160.945 166.396 161.268 165.003 161.268ZM165.795 153.238C166.323 153.238 166.785 153.12 167.181 152.886C167.592 152.651 167.907 152.321 168.127 151.896C168.347 151.456 168.457 150.957 168.457 150.4C168.457 149.828 168.347 149.329 168.127 148.904C167.907 148.478 167.592 148.148 167.181 147.914C166.785 147.664 166.323 147.54 165.795 147.54C165.267 147.54 164.805 147.664 164.409 147.914C164.013 148.148 163.698 148.478 163.463 148.904C163.243 149.329 163.133 149.828 163.133 150.4C163.133 150.957 163.243 151.456 163.463 151.896C163.698 152.321 164.013 152.651 164.409 152.886C164.805 153.12 165.267 153.238 165.795 153.238ZM174.85 161.048V157.99H177.93V161.048H174.85ZM180.451 161.048L187.469 145.538H189.779L196.797 161.048H193.937L192.067 156.692L193.255 157.462H183.971L185.159 156.692L183.311 161.048H180.451ZM188.591 148.596L185.511 155.922L184.939 155.218H192.287L191.737 155.922L188.635 148.596H188.591ZM199.374 161.048V145.538H202.19V161.048H199.374Z" fill="white"/>
</svg>
